<?xml version="1.0" encoding="UTF-8"?>
<svg id="Layer_2" data-name="Layer 2" xmlns="http://www.w3.org/2000/svg" viewBox="0 0 726.38 210.24">
  <defs>
    <style>
      .cls-1 {
        fill: #6fb6e5;
      }

      .cls-2 {
        fill: #f7fafc;
      }

      .cls-3 {
        fill: #a24f47;
      }

      .cls-4 {
        fill: #fbfeff;
      }

      .cls-5 {
        fill: #e5e0ca;
      }

      .cls-6 {
        fill: #f7fcfd;
      }

      .cls-7 {
        fill: #8f7432;
      }

      .cls-8 {
        fill: #b38253;
      }

      .cls-9 {
        fill: #61b385;
      }

      .cls-10 {
        fill: #303b54;
      }

      .cls-11 {
        fill: #a06e40;
      }

      .cls-12 {
        fill: #519872;
      }

      .cls-13 {
        fill: #182d56;
      }

      .cls-14 {
        fill: #fed45a;
      }

      .cls-15 {
        fill: #675325;
      }

      .cls-16 {
        fill: #182b54;
      }

      .cls-17 {
        fill: #263755;
      }

      .cls-18 {
        fill: #936545;
      }

      .cls-19 {
        fill: #85532e;
      }

      .cls-20 {
        fill: #f8c952;
      }

      .cls-21 {
        fill: #db6f57;
      }

      .cls-22 {
        fill: #be8456;
      }

      .cls-23 {
        fill: #d4a575;
      }

      .cls-24 {
        fill: #bed6d2;
      }

      .cls-25 {
        fill: #723634;
      }

      .cls-26 {
        fill: #ffd558;
      }

      .cls-27 {
        fill: #4b8ba5;
      }

      .cls-28 {
        fill: #3b6e51;
      }

      .cls-29 {
        fill: #a14f46;
      }

      .cls-30 {
        fill: #f47c68;
      }

      .cls-31 {
        fill: #d4a674;
      }

      .cls-32 {
        fill: #e2b687;
      }

      .cls-33 {
        fill: #f8c22e;
      }

      .cls-34 {
        fill: #61b485;
      }

      .cls-35 {
        fill: #1e3a6c;
      }
    </style>
  </defs>
  <g id="Layer_2-2" data-name="Layer 2">
    <g>
      <g>
        <g id="Tafel">
          <ellipse class="cls-5" cx="361.39" cy="179.81" rx="335.62" ry="8.18"/>
          <path class="cls-23" d="M723.9,140.87c.68,4.1,1.36,8.19,2.05,12.29H.29c.86-4.24,1.71-8.47,2.57-12.7,240.35.14,480.69.28,721.04.42Z"/>
          <path class="cls-8" d="M726.33,158.5c-242.03.1-484.06.21-726.08.31C.11,158.05,0,157.13,0,156.09c0-1.14.13-2.14.29-2.93,241.89,0,483.77,0,725.66,0,.15.71.29,1.52.36,2.41.09,1.09.08,2.08.02,2.93Z"/>
          <path class="cls-16" d="M656.96,158.59c8.62,17.22,17.25,34.44,25.88,51.66l-59.17-.03c2.3-17.27,4.6-34.53,6.9-51.8l26.39.17Z"/>
          <path class="cls-16" d="M97.35,158.66c2.18,17.17,4.36,34.34,6.54,51.51l-59.19.05c8.64-17.23,17.28-34.46,25.92-51.69l26.73.13Z"/>
          <path class="cls-35" d="M662.01,192.21c-.01,1.43-.03,2.86-.04,4.29-17.11-.01-34.21-.03-51.32-.04l-.06-4.28c17.14.01,34.28.02,51.42.03Z"/>
          <path class="cls-35" d="M115.64,192.2c-.01,1.42-.02,2.84-.04,4.25-17.12,0-34.23.01-51.35.02l-.06-4.25,51.44-.03Z"/>
        </g>
        <g id="Theepot">
          <path class="cls-1" d="M187.29,90.4c.63-1.46,1.27-2.93,1.9-4.39,8.26.98,17.59,1.59,27.8,1.46,7.07-.09,13.68-.53,19.76-1.17.26.98.8,2.4,2.05,3.51,1.21,1.07,2.54,1.37,2.93,1.46,4.47,1.12,9.21,7.88,9.77,8.69.92,1.31,5.81,8.29,4.71,17.36-1.64,13.56-15.36,20.94-18.15,21.66-.29.08-1.66.39-3.22,1.32-1.34.8-2.29,1.74-2.93,2.49-5.43.56-11.46.91-18,.88-7.42-.04-14.19-.56-20.2-1.32-.64-.54-1.61-1.33-2.86-2.16-4.99-3.33-6.81-2.36-10.02-4.57-4.18-2.88-2.68-5.62-7.9-9.51-2.04-1.52-2.77-1.48-4.39-3.07-2.74-2.7-3.72-5.85-4.24-7.61-4.07-13.68-3.4-18.5-7.17-22.1-1.59-1.51-4.36-3.19-9.51-3.37,3.61-2.15,7.22-4.29,10.83-6.44,4.46,1.09,7.4,2.96,9.37,4.68,4.12,3.61,4.98,7.49,8.05,7.61,1.29.05,1.7-.62,5.85-2.78,2.35-1.22,4.31-2.1,5.56-2.63Z"/>
          <path class="cls-1" d="M244.12,133.18c-.86-1.84,4.14-7.37,9.07-7.22.9.03,1.24.23,2.05.39,5.1,1.02,10.76-3.12,13.56-6.15,1.03-1.12,7.28-7.89,5.07-16.49-1.79-6.97-8.29-11.85-14.34-12.2-2.87-.16-7.66.58-8.98,3.41-.89,1.91.33,3.62-.49,4.2-1.84,1.29-10.12-5.91-9.17-7.61.22-.4.89-.37,1.66-.39,5.33-.15,6.77-2.6,12.39-3.61,1.36-.24,4.21-.73,7.71-.1,6.04,1.09,9.84,4.78,10.93,5.85,1.18,1.17,5.02,5.1,6.05,11.51,1.13,6.98-1.81,12.35-2.83,14.15-4.42,7.8-12.08,10.56-17.17,12.39-5.51,1.98-14.53,3.96-15.51,1.85Z"/>
          <path class="cls-27" d="M217.84,72.95c.93,1.65.19,3.74-.14,4.53-.53-.07-1.03.24-1.19.72-.2.59.2,1.15.59,1.33.46.22,1-.04,1.09-.08,1.84-.8,18.99,2.41,18.86,5.83-.11,2.98-13.27,5.16-22.83,5.41-11.79.31-25.24-2.14-25.33-4.93-.1-3.05,15.68-6.91,17.99-6.32.17.04,1.08.32,1.54-.12.27-.26.31-.7.21-1.03-.13-.46-.56-.79-1.07-.84-.32-.79-1.03-2.83-.12-4.47,1.76-3.14,8.64-3.16,10.4-.04Z"/>
          <path class="cls-24" d="M214.37,64.29c-.87-.05-1.95-.2-2.81.06-4.4-7.74-4.49-16.66.84-24.11,5.96-8.35-1.54-15.41-.63-17.2,1.5-2.96,9.82,8.43,2.56,19.18-3.66,5.42-4.85,11.96-1.53,17.81.79,1.4,1.46,2.82,1.58,4.27Z"/>
          <path class="cls-2" d="M207.43,94.73c2.42-.73,4.16.85,4.44,2.29.43,2.25-.48,3.8-2.22,4.39-1.85.63-3.77-.41-4.32-1.73-.85-2.04-.22-4.25,2.1-4.95Z"/>
          <path class="cls-2" d="M186.16,97.65c2.42-.73,4.16.85,4.44,2.29.43,2.25-.48,3.8-2.22,4.39-1.85.63-3.77-.41-4.32-1.73-.85-2.04-.22-4.25,2.1-4.95Z"/>
          <path class="cls-2" d="M218.35,108.29c2.42-.73,4.16.85,4.44,2.29.43,2.25-.48,3.8-2.22,4.39-1.85.63-3.77-.41-4.32-1.73-.85-2.04-.22-4.25,2.1-4.95Z"/>
          <path class="cls-6" d="M236,120.6c2.07-.87,3.91.51,4.49,1.92.76,1.83-.33,3.85-1.75,4.53-1.87.89-3.63-.02-4.47-1.34-1.08-1.71-.57-4.15,1.72-5.12Z"/>
          <path class="cls-6" d="M213.47,129.09c2.07-.87,3.91.51,4.49,1.92.76,1.83-.33,3.85-1.75,4.53-1.87.89-3.63-.02-4.47-1.34-1.08-1.71-.57-4.15,1.72-5.12Z"/>
          <path class="cls-2" d="M236.86,97.87c2.21-.83,4.12.81,4.48,2.17.56,2.08-.4,3.91-2.18,4.49s-3.73-.21-4.41-1.83c-.69-1.67-.1-3.99,2.11-4.82Z"/>
          <path class="cls-4" d="M195.34,115.27c1.78-.87,3.77-.28,4.63,1.19.91,1.57.6,3.87-1.13,4.86-1.56.89-3.84.57-4.84-1.11-.92-1.55-.64-3.98,1.34-4.94Z"/>
          <path class="cls-4" d="M175.93,112.93c1.78-.87,3.77-.28,4.63,1.19.91,1.57.6,3.87-1.13,4.86-1.56.89-3.84.57-4.84-1.11-.92-1.55-.64-3.98,1.34-4.94Z"/>
        </g>
        <g id="Lamp">
          <polygon class="cls-14" points="381.53 82.47 291.88 82.05 300.43 34.25 373 34.25 381.53 82.47"/>
          <path class="cls-16" d="M341.34,89.31c0,14.15.02,28.31.02,42.46,5.01.14,10.02.27,15.03.41.36.98.75,2.34.88,4,.15,1.9-.09,3.48-.35,4.57-3.5,1.39-8.78,3.06-15.41,3.58-.79.06-4.06.3-8.45-.02-4.06-.29-9.9-1.12-16.71-3.55-.79-2.92-.81-5.88.41-8.63,5.36-.12,10.73-.23,16.09-.35-.17-14.15-.34-28.31-.51-42.46l8.99-.02Z"/>
          <path class="cls-33" d="M381.53,82.47c.42,2.4,1.03,4.48.26,7.24-14.59-.35-29.5-.54-44.72-.55-15.51,0-30.7.19-45.57.55-.21-.99-.38-2.34-.3-3.93.08-1.52.38-2.78.67-3.72l89.65.42Z"/>
        </g>
        <g id="Beer">
          <path class="cls-22" d="M466.32,141.65c-3.17.45-5.57.3-7.68.15-10.96-.78-15.95-6-15.95-6-3.58-3.49-1.49-5.03-5.78-13.66-4.36-8.76-10.55-17.54-9.55-21.53.7-2.78,3.68-5.2,6.38-5.59,1.02-.15,1.83-.05,2.51.26,1.82.83,3.68,9.95,5.44,10.76.74.34,1.69.34,2.35-.07,1.31-.82,1.18-3.09,1.15-3.56-.03-.56-.1-1-.17-1.07-5.78-6.47-7.83-15.18-4.74-23.68.15-.41.01-.87-.33-1.14-2.71-2.12-4.11-4.77-3.57-7.89.54-3.12,2.77-5.56,5.79-6.29,3.11-.75,5.94.27,7.98,2.9.29.37.8.45,1.23.26,6.17-2.86,13-2.33,19.34-.27.39.13.8,0,1.07-.31,3.55-4,9.16-3.58,12.24.18,2.84,3.47,2.08,8.27-1.75,11.39-.33.27-.46.7-.33,1.1,2.91,8.57,1.16,17.27-4.7,23.68-.29.31-.35.77-.15,1.14.66,1.21,1.31,2.43,1.97,3.64.39.72,1.44.68,1.78-.06,1.37-3.03,6.05-9.42,8.99-9.02,2.75.38,5.6,2.96,6.32,5.58,1.24,4.55-8.3,11.35-12.32,20.66-3.29,7.65-1.02,10.22-4.66,13.5-4.11,3.7-11.86,4.79-12.85,4.94Z"/>
          <path class="cls-32" d="M457.27,107.18c2.51-.37,5.82-.57,8.12.11,6.98,2.05,9.93,9.12,8.25,15.95-1.44,5.87-7.09,10.04-13.66,9.6-6.18-.41-11.52-5.23-12.2-11.55-.67-6.22,2.81-13.14,9.49-14.11Z"/>
          <path class="cls-11" d="M476.35,66.39c2.31-1.18,4.68.15,5.45,1.77,1.05,2.22.35,4.91-1.7,5.73s-4.42.48-5.5-1.46c-1.02-1.83-.89-4.69,1.75-6.04Z"/>
          <path class="cls-11" d="M443.31,66.12c2.27-.62,4.29.87,4.9,2.57.85,2.38-.28,4.77-2.6,5.44-2.12.62-4.51-.4-5.28-2.83-.61-1.92.46-4.5,2.98-5.19Z"/>
          <path class="cls-10" d="M465.43,92.76c.47,2.17-2.62,3.26-4.33,3.26-2.17,0-4.72-1.12-4.48-3.43l4.04,1.83c1.2.54,2.37-1.22,4.76-1.66Z"/>
          <path class="cls-17" d="M452.14,82.56c1.02-.51,2.51-.27,2.97.39.59.85.51,2.57-.31,3.15-.89.63-2.55.63-3.17-.29-.56-.83-.6-2.69.51-3.25Z"/>
          <path class="cls-17" d="M468.34,82.42c1.18-.35,2.3.1,2.62.95.42,1.13.18,2.54-1.11,3-.91.33-2.24.1-2.83-1.21-.38-.85-.16-2.31,1.31-2.75Z"/>
          <path class="cls-19" d="M463.62,90.67c.05,1.65-4.81,1.81-5.12.25-.46-2.34,5.04-2.8,5.12-.25Z"/>
          <ellipse class="cls-22" cx="443.64" cy="138.85" rx="7.81" ry="9.94" transform="translate(165.77 511.51) rotate(-70.67)"/>
          <ellipse class="cls-22" cx="480.59" cy="139.1" rx="10.07" ry="7.91" transform="translate(-19.37 157.96) rotate(-18.3)"/>
          <ellipse class="cls-18" cx="447.53" cy="141.71" rx="3.81" ry="2" transform="translate(101.04 458.43) rotate(-60)"/>
          <ellipse class="cls-18" cx="437.57" cy="140.16" rx="2.01" ry="1.42"/>
          <ellipse class="cls-18" cx="438.51" cy="136.82" rx="1.42" ry="2.01" transform="translate(166.04 506.65) rotate(-70.95)"/>
          <ellipse class="cls-18" cx="440.66" cy="133.98" rx="1.42" ry="2.01" transform="translate(80.94 421.62) rotate(-55.56)"/>
          <ellipse class="cls-18" cx="476.11" cy="142.6" rx="2.03" ry="3.86" transform="translate(-5.48 265.43) rotate(-30.98)"/>
          <ellipse class="cls-18" cx="482.37" cy="134.54" rx="2.04" ry="1.44" transform="translate(130.73 491.1) rotate(-60.98)"/>
          <ellipse class="cls-18" cx="484.87" cy="137" rx="2.04" ry="1.44" transform="translate(32.59 359.08) rotate(-41.93)"/>
          <ellipse class="cls-18" cx="486.33" cy="140.31" rx="2.04" ry="1.44" transform="translate(-11.45 232.09) rotate(-26.54)"/>
        </g>
        <g id="Plant">
          <path class="cls-34" d="M577.25,98.42c1.06.67,2.46,1.76,3.59,3.46,0,0,1.33,1.99,1.82,4.69.7,3.83-.63,18.79-3.91,39.02h-36.73c-3.8-20.95-5.01-36.51-3.98-39.71.74-2.28,1.95-4.08,1.95-4.08,1.02-1.53,2.12-2.58,2.87-3.22,11.46-.05,22.93-.1,34.39-.16Z"/>
          <path class="cls-12" d="M561.79,59.93l-.68,9.01c7.04-2.23,17.26,8.57,14.7,11.42-2.55,2.85-11.16-1.59-14.69-7.13l.71,22.18c1.9-.06,4.66.02,7.89.67,3.26.66,7.76,1.56,7.86,2.98.14,2.05-8.92,5.26-17.95,5.26-8.49,0-17.29-2.82-17.22-4.94.05-1.53,4.73-2.63,7.29-3.23,3.57-.84,6.62-.82,8.62-.67-.76-12.03-1.18-23.7-.11-35.36,1.18-.06,2.36-.51,3.57-.2Z"/>
          <g>
            <path class="cls-21" d="M554.12,46.79c.54-.31-2.28-4.09-1.05-7.36.85-2.24,3.2-3.18,3.7-3.38.25-.1,4.06-1.56,6.28.51,1.88,1.75,2.03,5.49-.36,8.43,1.4-1.69,3.64-2.5,5.83-2.73.87-.09,1.76-.11,2.62.07,2.17.46,3.99,2.25,4.49,4.4.31,1.35.08,2.89-.87,3.88-.61.63-1.45.99-2.28,1.27-2.22.75-4.6,1.04-6.94.87,1.88.97,3.82,2,5.08,3.69s1.6,4.28.19,5.85c-.88.99-2.24,1.38-3.55,1.59-1.49.23-3.09.25-4.4-.48-1.8-1.01-2.59-3.15-3.12-5.14-.03.34-.4,3.81-3.36,5.44-2.22,1.23-5.8,1.37-7.48-.96-1.47-2.04-.81-5.01.58-6.51,1.24-1.34,3.32-1.93,3.08-1.84-1.28.48-2.72.2-4.04-.16-.34-.09-1.09-.27-1.8-.7-1.55-.92-3.59-3.37-2.8-6.23.78-2.8,3.78-4.23,5.87-3.86,2.55.45,3.88,3.61,4.34,3.34Z"/>
            <path class="cls-21" d="M554.37,47.22c.47-.36.31-.88.13-1.36-.29-.8-.64-1.57-.88-2.38-.65-2.21-.41-4.43,1.49-5.93,2.13-1.67,6.44-2.64,8.15.04,1.4,2.2.59,5.14-.92,7.05-.39.49.28,1.2.71.71,1.12-1.31,2.68-2.05,4.35-2.41,1.81-.39,3.77-.42,5.38.6,1.34.86,2.34,2.34,2.47,3.94.07.84-.08,1.74-.57,2.44-.52.76-1.39,1.16-2.24,1.45-2.22.77-4.56,1.04-6.9.88-.49-.03-.68.71-.25.93,2.71,1.4,6.46,3.49,5.89,7.14-.27,1.77-1.79,2.61-3.4,2.96s-3.61.48-5.05-.55-2.06-2.94-2.51-4.6c-.15-.57-.93-.41-.98.13-.24,2.55-2.02,4.94-4.63,5.6-1.57.4-3.49.31-4.76-.82-1.46-1.3-1.56-3.5-.82-5.2.41-.94,1.09-1.65,1.96-2.19.51-.31,1.13-.68,1.72-.79l-.56-.73h0c.1-.07.2-.15.3-.23-1.07.44-2.29.23-3.37-.04-.88-.22-1.75-.47-2.49-1.01-1.47-1.07-2.53-2.9-2.31-4.75s1.54-3.26,3.19-3.88c1.56-.58,3.04-.3,4.26.83.54.5.98,1.08,1.44,1.63.25.3.65.78,1.1.6.59-.24.33-1.21-.27-.96.21-.08.21.13.14-.03-.03-.08-.16-.17-.21-.23-.23-.26-.44-.54-.66-.81-.56-.66-1.19-1.29-1.94-1.73-1.59-.93-3.52-.69-5.08.18-1.76.99-2.99,2.84-3,4.89s1.18,3.92,2.78,5.1c.99.73,2.24,1.06,3.43,1.3.68.13,1.38.22,2.07.16.43-.04,1.23-.08,1.49-.49s-.16-.81-.56-.73c-.62.12-1.28.49-1.82.81-.89.52-1.67,1.21-2.19,2.11-1.07,1.85-1.24,4.39.03,6.18,2.42,3.41,7.99,2.32,10.23-.68.87-1.16,1.41-2.61,1.54-4.05l-.98.13c.47,1.74,1.11,3.63,2.52,4.84,1.57,1.36,3.66,1.43,5.62,1.13,1.82-.29,3.71-1.03,4.48-2.84.69-1.63.32-3.59-.62-5.04-1.27-1.97-3.44-3.12-5.46-4.16l-.25.93c2.42.17,4.87-.12,7.17-.92.96-.33,1.93-.78,2.59-1.58.59-.71.88-1.6.95-2.51.14-1.87-.75-3.73-2.15-4.95-1.63-1.42-3.67-1.77-5.77-1.52-2.24.27-4.48,1.1-5.99,2.86l.71.71c1.52-1.92,2.39-4.48,1.68-6.91-.64-2.18-2.5-3.44-4.74-3.48-3.39-.05-7.33,2.02-7.7,5.69-.13,1.28.17,2.57.59,3.77.18.51.39,1,.58,1.5.07.17.12.36.19.53.11.25-.03.09.22-.1-.5.39,0,1.26.5.86Z"/>
          </g>
          <path class="cls-14" d="M565.33,51.58c-.04.64-.07,1.56-.36,2-1.35,2.06-2.8,3.53-5.2,3.71-1.64.13-3.63-.65-5.2-2.05-.46-.41-.73-1.36-.98-2.03-1.5-4.03,1.3-7.82,5.31-8.11,3.49-.25,6.69,2.54,6.43,6.49Z"/>
          <path class="cls-12" d="M577.09,121.31l-33.85.1c0-.63,0-1.27,0-1.9h33.81c.01.59.03,1.2.04,1.8Z"/>
        </g>
        <g id="Boeken">
          <path class="cls-26" d="M125.46,87.01c-.04,5.48-.08,10.97-.13,16.45-22.41,0-44.82,0-67.23,0l-.14-16.46h67.49Z"/>
          <path class="cls-7" d="M125.46,87.01H57.97c0-1.3-.59-2.68.28-4.41h66.83c1.2,1.69.38,3.17.38,4.41Z"/>
          <path class="cls-7" d="M118.93,95.06c-18.06.02-36.11.04-54.17.06v-1.36s54.25-.08,54.25-.08c-.03.46-.05.92-.08,1.38Z"/>
          <path class="cls-7" d="M107.59,98.78l-43.47.09c-.02-.46-.05-.93-.07-1.39,14.46-.05,28.93-.1,43.39-.15.05.48.1.97.15,1.45Z"/>
          <path class="cls-30" d="M126.49,107.64c-.05,5.48-.1,10.97-.15,16.45-25.84,0-51.68,0-77.52,0l-.16-16.46h77.83Z"/>
          <path class="cls-29" d="M126.49,107.64H48.67c0-1.3-.68-2.68.33-4.41h77.07c1.38,1.69.44,3.17.43,4.41Z"/>
          <path class="cls-29" d="M118.96,115.7c-20.82.02-41.64.04-62.47.06v-1.36s62.55-.08,62.55-.08c-.03.46-.06.92-.09,1.38Z"/>
          <path class="cls-29" d="M105.88,119.41l-50.13.09c-.03-.46-.05-.93-.08-1.39,16.68-.05,33.36-.1,50.03-.15.06.48.11.97.17,1.45Z"/>
          <path class="cls-12" d="M128.99,128.42c-.06,5.48-.11,10.97-.17,16.45-30.06,0-60.12,0-90.18,0l-.18-16.46h90.53Z"/>
          <path class="cls-28" d="M128.99,128.42H38.46c-.01-1.3-.8-2.68.38-4.41h89.65c1.61,1.69.51,3.17.5,4.41Z"/>
          <path class="cls-28" d="M120.23,136.48c-24.22.02-48.44.04-72.66.06v-1.36s72.77-.08,72.77-.08c-.03.46-.07.92-.1,1.38Z"/>
          <path class="cls-28" d="M105.02,140.19l-58.31.09c-.03-.46-.06-.93-.09-1.39,19.4-.05,38.8-.1,58.2-.15.07.48.13.97.2,1.45Z"/>
        </g>
        <g id="Schilderij">
          <path class="cls-9" d="M696.12,128.15c.09,2.17.18,4.33.27,6.5-21.85-.13-43.71-.26-65.56-.39.03-2.02.06-4.03.1-6.05,21.73-.02,43.46-.04,65.19-.06Z"/>
          <path class="cls-31" d="M675.16,109.26l-.09,18.87h-22.85s-.17-19.05-.17-19.05c7.71.06,15.41.12,23.12.18Z"/>
          <path class="cls-21" d="M674.78,109.48c-7.53.03-15.06.05-22.58.08-1.03,0-1.56-1.21-.83-1.94,3.74-3.76,7.48-7.51,11.21-11.27.45-.45,1.2-.46,1.65,0l11.37,11.19c.73.72.21,1.94-.82,1.95Z"/>
          <path class="cls-33" d="M680.99,81.99c2.56-1.15,5.64-.01,6.72,2.62.89,2.19.04,4.94-2.56,6.31-2.14,1.13-4.98.58-6.55-2.24-1.09-1.96-.55-5.37,2.4-6.7Z"/>
          <path class="cls-20" d="M676.03,86.19c-1.21,1.28-3.21,1.3-4.47,0,1.35-.97,2.67-1.21,4.47,0Z"/>
          <path class="cls-20" d="M677.67,81.35c-1.76.05-3.19-1.35-3.15-3.16,1.64.26,2.74,1.03,3.15,3.16Z"/>
          <path class="cls-20" d="M677.76,91.17c.05,1.76-1.35,3.19-3.16,3.15.26-1.64,1.03-2.74,3.16-3.15Z"/>
          <path class="cls-20" d="M682.84,97.76c-1.28-1.21-1.3-3.21,0-4.47.97,1.35,1.21,2.67,0,4.47Z"/>
          <path class="cls-20" d="M689.43,85.9c.97-1.46,2.94-1.82,4.4-.75-1.16,1.19-2.42,1.65-4.4.75Z"/>
          <path class="cls-20" d="M687.38,80.95c-.35-1.72.79-3.37,2.58-3.65.02,1.66-.54,2.88-2.58,3.65Z"/>
          <path class="cls-20" d="M681.41,75.05c1.46.97,1.82,2.94.75,4.4-1.19-1.16-1.65-2.42-.75-4.4Z"/>
          <path class="cls-20" d="M690.74,94.91c-1.76.05-3.19-1.35-3.15-3.16,1.64.26,2.74,1.03,3.15,3.16Z"/>
          <polygon class="cls-13" points="668.4 128.16 660.02 128.16 659.96 115.14 668.36 115.22 668.4 128.16"/>
          <path class="cls-16" d="M702.58,140.52l-76.63.11c-1.54-.54-2.27-1.69-2.27-3.67l.03-68.48c0-1.58.87-2.58,2.4-2.82l75.58.04c1.49,0,2.4,1.38,2.53,2.78l.04,67.74c0,1.98-.38,3.32-1.68,4.3ZM696.15,132.85c-.03-19.39-.07-38.78-.1-58.17,0-.58-.47-1.05-1.06-1.05-20.84.05-41.67.11-62.51.16-.58,0-1.05.47-1.05,1.05-.1,19.39-.21,38.78-.31,58.17,0,.58.47,1.06,1.06,1.06,20.97-.05,41.94-.11,62.92-.16.58,0,1.05-.47,1.05-1.06Z"/>
        </g>
      </g>
      <g id="Prijskaartje_2" data-name="Prijskaartje 2">
        <path class="cls-3" d="M174.94,39.13l-54.05,11.62-5.59-26.69,53.71-11.39,16.23,10.45-10.29,16.01ZM173.94,38.05l9.24-14.68-14.38-9.28-51.93,11.12,5.16,23.86,51.9-11.02Z"/>
        <path class="cls-21" d="M173.94,38.05l-51.9,11.02-5.16-23.86,51.93-11.12,14.38,9.28-9.24,14.68ZM172.86,23.46c-1.43,1.19-.94,3.6-.02,4.25,1.1.77,2.78.76,3.63.07,1.18-.97,1.21-3.02.37-4.08-.7-.88-2.69-1.31-3.98-.24Z"/>
      </g>
      <g id="Prijskaartje_1" data-name="Prijskaartje 1">
        <path class="cls-33" d="M506.78,9.43l-43.52-5.89-23.72-3.54-4,26.81,8.45,1.22,58.98,8.38,15.5-11.54-11.7-15.44ZM502.79,35.07l-40.22-5.67-17.05-2.13-8.24-1.59,3.28-24.29,18.99,2.88,46.55,6.53,10.43,13.76-13.74,10.51Z"/>
        <path class="cls-14" d="M459.55,4.27l46.55,6.53,10.43,13.76-13.74,10.51-40.22-5.67-17.05-2.13-8.24-1.6,3.28-24.29,18.99,2.88ZM506.79,21.11c-1.75.79-1.97,2.67-1.22,3.95.63,1.07,2.09,1.7,3.37,1.11s1.99-2.03,1.47-3.53c-.36-1.05-1.82-2.34-3.62-1.53Z"/>
      </g>
      <g>
        <path class="cls-25" d="M125.56,35.21c-.71-3.37.71-5.71,3.4-6.28,1.98-.41,2.98.3,3.8,1.05l-1.36,1.5c-.59-.68-1.2-.95-2.06-.77-.94.2-1.61,1.01-1.68,2.14l3.4-.71.28,1.33-3.51.74.21,1,3.51-.74.28,1.33-3.4.71c.51,1.05,1.42,1.49,2.4,1.29.86-.18,1.39-.71,1.7-1.67l1.86.84c-.38,1.04-1.21,2.19-3.18,2.61-2.69.56-4.93-1.02-5.64-4.38Z"/>
        <path class="cls-25" d="M134.53,33.33c-.71-3.37.15-5.6,2.85-6.16s4.38,1.13,5.09,4.5-.15,5.6-2.86,6.16-4.38-1.13-5.09-4.5ZM140.27,33.15l-.41-1.95c-.33-1.57-.9-2.4-2.09-2.15s-1.37,1.24-1.04,2.81l.41,1.95c.33,1.57.9,2.4,2.08,2.15s1.37-1.24,1.05-2.81Z"/>
        <path class="cls-25" d="M147.35,34.65l.06.3c.25,1.2-.12,2.6-.91,3.52l-1.48.31c.56-.79.93-1.51,1.02-2.34-.7.02-1.11-.37-1.23-.94l-.06-.3c-.14-.68.17-1.27,1.05-1.45s1.4.23,1.55.91Z"/>
        <path class="cls-25" d="M154.54,25.78l-4.68.98.46,3.31.12-.02c.21-1.06.56-1.83,1.87-2.1,1.76-.37,3.43.55,3.86,2.61s-.65,3.94-3.19,4.48c-1.99.42-3.25-.29-4.09-1.21l1.34-1.61c.61.7,1.32,1.23,2.39,1.01s1.47-1,1.26-2.01l-.02-.12c-.2-.94-.91-1.41-1.87-1.21-.8.17-1.24.69-1.44,1.06l-1.87.13-.84-5.91,6.3-1.32.41,1.93Z"/>
        <path class="cls-25" d="M156.81,28.66c-.71-3.37.15-5.6,2.85-6.16s4.38,1.13,5.09,4.5-.15,5.6-2.86,6.16-4.38-1.13-5.09-4.5ZM162.56,28.48l-.41-1.95c-.33-1.57-.9-2.4-2.09-2.15s-1.37,1.24-1.04,2.81l.41,1.95c.33,1.57.9,2.4,2.08,2.15s1.37-1.24,1.05-2.81Z"/>
      </g>
      <g>
        <path class="cls-15" d="M456.96,16.06c.55-4,3.04-6.03,6.23-5.59,2.35.32,3.17,1.51,3.78,2.66l-2.1,1.12c-.38-.98-.95-1.52-1.97-1.66-1.12-.15-2.17.49-2.7,1.7l4.03.55-.22,1.58-4.17-.57-.16,1.19,4.17.57-.22,1.58-4.03-.55c.15,1.36.98,2.21,2.14,2.37,1.02.14,1.82-.23,2.54-1.17l1.72,1.67c-.83.99-2.2,1.95-4.55,1.63-3.19-.44-5.04-3.07-4.49-7.07Z"/>
        <path class="cls-15" d="M467.88,23.79l.29-2.12,3.3.45,1.13-8.2-.16-.02-2.94,2.92-1.5-1.55,3.46-3.45,4.03.55-1.39,10.12,2.59.36-.29,2.12-8.52-1.17Z"/>
        <path class="cls-15" d="M481.25,24.04l-.05.35c-.19,1.42-1.16,2.82-2.4,3.53l-1.75-.24c.93-.66,1.62-1.29,2.05-2.18-.79-.25-1.08-.85-.99-1.53l.05-.35c.11-.81.68-1.34,1.74-1.19s1.46.81,1.35,1.61Z"/>
        <path class="cls-15" d="M483.66,21.8l.35-2.52,5.21.72-.35,2.52-5.21-.72Z"/>
      </g>
    </g>
  </g>
</svg>